<svg id="visual" viewBox="0 0 900 900" width="900" height="900" xmlns="http://www.w3.org/2000/svg" xmlns:xlink="http://www.w3.org/1999/xlink" version="1.1"><rect x="0" y="0" width="900" height="900" fill="#001220"></rect><defs><linearGradient id="grad1_0" x1="0%" y1="0%" x2="100%" y2="100%"><stop offset="30%" stop-color="#fbae3c" stop-opacity="1"></stop><stop offset="70%" stop-color="#fbae3c" stop-opacity="1"></stop></linearGradient></defs><defs><linearGradient id="grad1_1" x1="0%" y1="0%" x2="100%" y2="100%"><stop offset="30%" stop-color="#fbae3c" stop-opacity="1"></stop><stop offset="70%" stop-color="#f48350" stop-opacity="1"></stop></linearGradient></defs><defs><linearGradient id="grad1_2" x1="0%" y1="0%" x2="100%" y2="100%"><stop offset="30%" stop-color="#d96162" stop-opacity="1"></stop><stop offset="70%" stop-color="#f48350" stop-opacity="1"></stop></linearGradient></defs><defs><linearGradient id="grad1_3" x1="0%" y1="0%" x2="100%" y2="100%"><stop offset="30%" stop-color="#d96162" stop-opacity="1"></stop><stop offset="70%" stop-color="#af4b6d" stop-opacity="1"></stop></linearGradient></defs><defs><linearGradient id="grad1_4" x1="0%" y1="0%" x2="100%" y2="100%"><stop offset="30%" stop-color="#7c3e6b" stop-opacity="1"></stop><stop offset="70%" stop-color="#af4b6d" stop-opacity="1"></stop></linearGradient></defs><defs><linearGradient id="grad1_5" x1="0%" y1="0%" x2="100%" y2="100%"><stop offset="30%" stop-color="#7c3e6b" stop-opacity="1"></stop><stop offset="70%" stop-color="#49335c" stop-opacity="1"></stop></linearGradient></defs><defs><linearGradient id="grad1_6" x1="0%" y1="0%" x2="100%" y2="100%"><stop offset="30%" stop-color="#1d2540" stop-opacity="1"></stop><stop offset="70%" stop-color="#49335c" stop-opacity="1"></stop></linearGradient></defs><defs><linearGradient id="grad1_7" x1="0%" y1="0%" x2="100%" y2="100%"><stop offset="30%" stop-color="#1d2540" stop-opacity="1"></stop><stop offset="70%" stop-color="#001220" stop-opacity="1"></stop></linearGradient></defs><defs><linearGradient id="grad2_0" x1="0%" y1="0%" x2="100%" y2="100%"><stop offset="30%" stop-color="#fbae3c" stop-opacity="1"></stop><stop offset="70%" stop-color="#fbae3c" stop-opacity="1"></stop></linearGradient></defs><defs><linearGradient id="grad2_1" x1="0%" y1="0%" x2="100%" y2="100%"><stop offset="30%" stop-color="#f48350" stop-opacity="1"></stop><stop offset="70%" stop-color="#fbae3c" stop-opacity="1"></stop></linearGradient></defs><defs><linearGradient id="grad2_2" x1="0%" y1="0%" x2="100%" y2="100%"><stop offset="30%" stop-color="#f48350" stop-opacity="1"></stop><stop offset="70%" stop-color="#d96162" stop-opacity="1"></stop></linearGradient></defs><defs><linearGradient id="grad2_3" x1="0%" y1="0%" x2="100%" y2="100%"><stop offset="30%" stop-color="#af4b6d" stop-opacity="1"></stop><stop offset="70%" stop-color="#d96162" stop-opacity="1"></stop></linearGradient></defs><defs><linearGradient id="grad2_4" x1="0%" y1="0%" x2="100%" y2="100%"><stop offset="30%" stop-color="#af4b6d" stop-opacity="1"></stop><stop offset="70%" stop-color="#7c3e6b" stop-opacity="1"></stop></linearGradient></defs><defs><linearGradient id="grad2_5" x1="0%" y1="0%" x2="100%" y2="100%"><stop offset="30%" stop-color="#49335c" stop-opacity="1"></stop><stop offset="70%" stop-color="#7c3e6b" stop-opacity="1"></stop></linearGradient></defs><defs><linearGradient id="grad2_6" x1="0%" y1="0%" x2="100%" y2="100%"><stop offset="30%" stop-color="#49335c" stop-opacity="1"></stop><stop offset="70%" stop-color="#1d2540" stop-opacity="1"></stop></linearGradient></defs><defs><linearGradient id="grad2_7" x1="0%" y1="0%" x2="100%" y2="100%"><stop offset="30%" stop-color="#001220" stop-opacity="1"></stop><stop offset="70%" stop-color="#1d2540" stop-opacity="1"></stop></linearGradient></defs><g transform="translate(900, 0)"><path d="M0 477.3C-62.8 471.3 -125.7 465.4 -182.7 441C-239.6 416.6 -290.8 373.8 -324.6 324.6C-358.3 275.3 -374.7 219.7 -397.3 164.6C-419.8 109.4 -448.6 54.7 -477.3 0L0 0Z" fill="#0c1c30"></path><path d="M0 417.6C-55 412.4 -110 407.2 -159.8 385.8C-209.7 364.5 -254.4 327.1 -284 284C-313.5 240.9 -327.9 192.3 -347.6 144C-367.3 95.7 -392.5 47.9 -417.6 0L0 0Z" fill="#312c4f"></path><path d="M0 358C-47.1 353.5 -94.2 349 -137 330.7C-179.7 312.4 -218.1 280.3 -243.4 243.4C-268.7 206.5 -281 164.8 -298 123.4C-314.9 82 -336.4 41 -358 0L0 0Z" fill="#623965"></path><path d="M0 298.3C-39.3 294.6 -78.5 290.8 -114.2 275.6C-149.8 260.4 -181.7 233.6 -202.9 202.9C-224 172.1 -234.2 137.3 -248.3 102.8C-262.4 68.4 -280.4 34.2 -298.3 0L0 0Z" fill="#96446e"></path><path d="M0 238.6C-31.4 235.7 -62.8 232.7 -91.3 220.5C-119.8 208.3 -145.4 186.9 -162.3 162.3C-179.2 137.7 -187.4 109.9 -198.6 82.3C-209.9 54.7 -224.3 27.3 -238.6 0L0 0Z" fill="#c55469"></path><path d="M0 179C-23.6 176.7 -47.1 174.5 -68.5 165.4C-89.9 156.2 -109 140.2 -121.7 121.7C-134.4 103.3 -140.5 82.4 -149 61.7C-157.4 41 -168.2 20.5 -179 0L0 0Z" fill="#e9705a"></path><path d="M0 119.3C-15.7 117.8 -31.4 116.3 -45.7 110.2C-59.9 104.1 -72.7 93.4 -81.1 81.1C-89.6 68.8 -93.7 54.9 -99.3 41.1C-105 27.3 -112.1 13.7 -119.3 0L0 0Z" fill="#fa9845"></path><path d="M0 59.7C-7.9 58.9 -15.7 58.2 -22.8 55.1C-30 52.1 -36.3 46.7 -40.6 40.6C-44.8 34.4 -46.8 27.5 -49.7 20.6C-52.5 13.7 -56.1 6.8 -59.7 0L0 0Z" fill="#fbae3c"></path></g><g transform="translate(0, 900)"><path d="M0 -477.3C63.3 -465.8 126.5 -454.4 176 -425C225.5 -395.6 261.2 -348.3 307.6 -307.6C353.9 -266.9 410.9 -232.8 441 -182.7C471 -132.5 474.2 -66.2 477.3 0L0 0Z" fill="#0c1c30"></path><path d="M0 -417.6C55.4 -407.6 110.7 -397.6 154 -371.9C197.3 -346.1 228.6 -304.8 269.1 -269.1C309.7 -233.5 359.5 -203.7 385.8 -159.8C412.1 -115.9 414.9 -58 417.6 0L0 0Z" fill="#312c4f"></path><path d="M0 -358C47.5 -349.4 94.9 -340.8 132 -318.7C169.1 -296.7 195.9 -261.2 230.7 -230.7C265.5 -200.2 308.2 -174.6 330.7 -137C353.3 -99.4 355.6 -49.7 358 0L0 0Z" fill="#623965"></path><path d="M0 -298.3C39.5 -291.1 79.1 -284 110 -265.6C141 -247.2 163.3 -217.7 192.2 -192.2C221.2 -166.8 256.8 -145.5 275.6 -114.2C294.4 -82.8 296.3 -41.4 298.3 0L0 0Z" fill="#96446e"></path><path d="M0 -238.6C31.6 -232.9 63.3 -227.2 88 -212.5C112.8 -197.8 130.6 -174.1 153.8 -153.8C177 -133.4 205.5 -116.4 220.5 -91.3C235.5 -66.2 237.1 -33.1 238.6 0L0 0Z" fill="#c55469"></path><path d="M0 -179C23.7 -174.7 47.5 -170.4 66 -159.4C84.6 -148.3 98 -130.6 115.3 -115.3C132.7 -100.1 154.1 -87.3 165.4 -68.5C176.6 -49.7 177.8 -24.8 179 0L0 0Z" fill="#e9705a"></path><path d="M0 -119.3C15.8 -116.5 31.6 -113.6 44 -106.2C56.4 -98.9 65.3 -87.1 76.9 -76.9C88.5 -66.7 102.7 -58.2 110.2 -45.7C117.8 -33.1 118.5 -16.6 119.3 0L0 0Z" fill="#fa9845"></path><path d="M0 -59.7C7.9 -58.2 15.8 -56.8 22 -53.1C28.2 -49.4 32.7 -43.5 38.4 -38.4C44.2 -33.4 51.4 -29.1 55.1 -22.8C58.9 -16.6 59.3 -8.3 59.7 0L0 0Z" fill="#fbae3c"></path></g></svg>